<svg xmlns="http://www.w3.org/2000/svg" viewBox="0 0 97.67 104.43"><defs><style>.cls-1{fill:#2a2a2a;}.cls-2{fill:#d8b100;}.cls-3{fill:#fbfbfb;}</style></defs><g id="Camada_2" data-name="Camada 2"><rect class="cls-1" x="5.54" y="11.54" width="92.13" height="92.13" rx="46.06"/><path class="cls-2" d="M100,146.81c-24.41.41-45.68-15.77-50.51-40.07a52,52,0,0,1,2.95-30.69A54.66,54.66,0,0,1,65.26,57.49c.83-.73,2.95-2.55,3.76-3.24s3.13-2.21,4.07-2.89c1.32-.91,2.94-1.7,4.34-2.53,19.07-10.18,43.49-8.09,61,4.85l-8.72,10.5c0,.89.56,1.16,1,1.57a46.2,46.2,0,0,1,7,60.84c-.54.69-1.56,2.14-2.09,2.84s-1.75,2-2.35,2.64c-.75.93-3,2.81-3.83,3.67A48,48,0,0,1,100,146.81Zm0-1.49a45.1,45.1,0,0,0,45.84-41.7c0-.88.16-2.64.19-3.52-.09-1.75-.11-3.52-.29-5.27l-.53-3.48c-.28-1.67-.85-3.49-1.25-5.13-.46-1.19-1.06-3-1.51-4.14-.24-.52-1.64-3.39-1.91-4l-1.83-3c-.83-1.48-2.11-2.88-3.08-4.28-1.14-1.25-2.36-2.72-3.6-3.87l-1.3-1.19c-.45-.37-.78-.9-1.62-.8l-8.73,10.5A33.7,33.7,0,0,0,107.17,67C86,60.06,64.42,74.21,60,95.7c-.23,1.6-.54,3.22-.66,4.83,0,.8-.11,2.9-.15,3.69s.2,2.88.24,3.7a45.56,45.56,0,0,0,1.88,8.54,49.22,49.22,0,0,0,2.52,5.81,42,42,0,0,0,36.16,23Z" transform="translate(-48.39 -42.39)"/><path class="cls-3" d="M68.69,117.12a8.23,8.23,0,0,0,1.73-.15,2.31,2.31,0,0,0,1.1-.53,2.78,2.78,0,0,0,.72-1.12c.19-.5.42-1.13.67-1.9q2.07-7,4.18-14t4.22-14h1.63l10.23,31.68h2.11v.81H83.81v-.81H87L84,107.47H75.6l-.34,1c-.16.48-.35,1.09-.57,1.82s-.44,1.47-.65,2.21-.39,1.41-.55,2a5.92,5.92,0,0,0-.24,1.24,1,1,0,0,0,.45.87,3.24,3.24,0,0,0,1.08.41,6.77,6.77,0,0,0,1.28.12h1.12v.81H68.69Zm7.15-10.47h7.87l-4-12.57Z" transform="translate(-48.39 -42.39)"/><path class="cls-3" d="M95.66,116.78v.29h-.19Zm8.93,1.15v-.81h-1.51a4.37,4.37,0,0,1-1.15-.15,2.49,2.49,0,0,1-.94-.45,1.21,1.21,0,0,1-.43-.89,4.29,4.29,0,0,1-.1-1V90.86l.39-.1,9.41,26.64q2.3-6.53,4.53-13t4.44-13l.39.1-.05,25.63h-2.69v.86H128v-.81h-2.59V86.73H128v-.81H120.1l-7.49,21.64-7.54-21.64H95.81v.81h3.5a4.55,4.55,0,0,1,.17,1.37c0,.85.08,1.94.1,3.29s0,2.87,0,4.58,0,3.45,0,5.21V106q0,2.39,0,4.32c0,1.3,0,2.4-.07,3.32s-.06,1.51-.09,1.8c-.1.86-.46,1.36-1.08,1.48a9,9,0,0,1-2.14.15h-.58v.86Z" transform="translate(-48.39 -42.39)"/></g></svg>