<svg xmlns="http://www.w3.org/2000/svg" xmlns:xlink="http://www.w3.org/1999/xlink" version="1.1" id="Layer_1" x="0px" y="0px" viewBox="0 0 512.002 512.002" style="enable-background:new 0 0 512.002 512.002;" xml:space="preserve">
<circle style="fill:#FAFAFA;" cx="256.001" cy="256" r="256"/>
<g>
	<path style="fill:#2A2A2A;" d="M363.043,109.466H148.958c-21.809,0-39.49,17.68-39.49,39.49v214.085   c0,21.811,17.68,39.49,39.49,39.49h105.584l0.183-104.722h-27.21c-3.536,0-6.406-2.86-6.418-6.396l-0.133-33.759   c-0.014-3.553,2.867-6.444,6.42-6.444h27.162v-32.618c0-37.852,23.118-58.463,56.884-58.463h27.71c3.543,0,6.42,2.874,6.42,6.42   v28.463c0,3.546-2.874,6.42-6.416,6.42l-17.006,0.01c-18.363,0-21.921,8.725-21.921,21.533v28.239h40.351   c3.848,0,6.83,3.358,6.375,7.173l-4.001,33.759c-0.381,3.232-3.122,5.665-6.375,5.665h-36.168l-0.183,104.726h62.826   c21.809,0,39.49-17.682,39.49-39.491v-214.09C402.533,127.147,384.852,109.466,363.043,109.466L363.043,109.466z"/>
	<polygon style="fill:#FAFAFA;" points="254.542,402.53 254.725,297.808 254.277,297.808 254.277,402.53  "/>
</g>
<path style="fill:#2A2A2A;" d="M363.043,109.466H254.277v141.741h0.269V218.59c0-37.852,23.118-58.463,56.884-58.463h27.71  c3.543,0,6.42,2.874,6.42,6.42v28.463c0,3.546-2.874,6.42-6.416,6.42l-17.006,0.01c-18.363,0-21.921,8.725-21.921,21.533v28.238  h40.351c3.848,0,6.83,3.358,6.375,7.173l-4.001,33.759c-0.381,3.232-3.122,5.665-6.375,5.665h-36.168l-0.183,104.726h62.826  c21.809,0,39.49-17.682,39.49-39.491V148.956C402.533,127.147,384.852,109.466,363.043,109.466z"/>
</svg>