<svg xmlns="http://www.w3.org/2000/svg" viewBox="0 0 97.67 104.43"><defs><style>.cls-1{fill:#2a2a2a;}.cls-2{fill:#d8b100;}.cls-3{fill:#fbfbfb;}</style></defs><g id="Camada_2" data-name="Camada 2"><rect class="cls-1" x="5.54" y="11.54" width="92.13" height="92.13" rx="46.06"/><path class="cls-2" d="M100,146.81c-24.41.41-45.68-15.77-50.51-40.07a52,52,0,0,1,2.95-30.69A54.66,54.66,0,0,1,65.26,57.49c.83-.73,2.95-2.55,3.76-3.24s3.13-2.21,4.07-2.89c1.32-.91,2.94-1.7,4.34-2.53,19.07-10.18,43.49-8.09,61,4.85l-8.72,10.5c0,.89.56,1.16,1,1.57a46.2,46.2,0,0,1,7,60.84c-.54.69-1.56,2.14-2.09,2.84s-1.75,2-2.35,2.64c-.75.93-3,2.81-3.83,3.67A48,48,0,0,1,100,146.81Zm0-1.49a45.1,45.1,0,0,0,45.84-41.7c0-.88.16-2.64.19-3.52-.09-1.75-.11-3.52-.29-5.27l-.53-3.48c-.28-1.67-.85-3.49-1.25-5.13-.46-1.19-1.06-3-1.51-4.14-.24-.52-1.64-3.39-1.91-4l-1.83-3c-.83-1.48-2.11-2.88-3.08-4.28-1.14-1.25-2.36-2.72-3.6-3.87l-1.3-1.19c-.45-.37-.78-.9-1.62-.8l-8.73,10.5A33.7,33.7,0,0,0,107.17,67C86,60.06,64.42,74.21,60,95.7c-.23,1.6-.54,3.22-.66,4.83,0,.8-.11,2.9-.15,3.69s.2,2.88.24,3.7a45.56,45.56,0,0,0,1.88,8.54,49.22,49.22,0,0,0,2.52,5.81,42,42,0,0,0,36.16,23Z" transform="translate(-48.39 -42.39)"/><path class="cls-3" d="M68.69,117.12a8.23,8.23,0,0,0,1.73-.15,2.31,2.31,0,0,0,1.1-.53,2.78,2.78,0,0,0,.72-1.12c.19-.5.42-1.13.67-1.9q2.07-7,4.18-14t4.22-14h1.63l10.23,31.68h2.11v.81H83.81v-.81H87L84,107.47H75.6l-.34,1c-.16.48-.35,1.09-.57,1.82s-.44,1.47-.65,2.21-.39,1.41-.55,2a5.92,5.92,0,0,0-.24,1.24,1,1,0,0,0,.45.87,3.24,3.24,0,0,0,1.08.41,6.77,6.77,0,0,0,1.28.12h1.12v.81H68.69Zm7.15-10.47h7.87l-4-12.57Z" transform="translate(-48.39 -42.39)"/><path class="cls-3" d="M95.66,116.78v.29h-.19Zm8.93,1.15v-.81h-1.51a4.37,4.37,0,0,1-1.15-.15,2.49,2.49,0,0,1-.94-.45,1.21,1.21,0,0,1-.43-.89,4.29,4.29,0,0,1-.1-1V90.86l.39-.1,9.41,26.64q2.3-6.53,4.53-13t4.44-13l.39.1-.05,25.63h-2.69v.86H128v-.81h-2.59V86.73H128v-.81H120.1l-7.49,21.64-7.54-21.64H95.81v.81h3.5a4.55,4.55,0,0,1,.17,1.37c0,.85.08,1.94.1,3.29s0,2.87,0,4.58,0,3.45,0,5.21V106q0,2.39,0,4.32c0,1.3,0,2.4-.07,3.32s-.06,1.51-.09,1.8c-.1.86-.46,1.36-1.08,1.48a9,9,0,0,1-2.14.15h-.58v.86Z" transform="translate(-48.39 -42.39)"/><path class="cls-3" d="M82.58,131.06h.14a4.1,4.1,0,0,0,.14.83,2,2,0,0,0,.31.64,1.48,1.48,0,0,0,.51.42,1.64,1.64,0,0,0,.73.15,1.4,1.4,0,0,0,.47-.08,1,1,0,0,0,.35-.23.78.78,0,0,0,.19-.36,1,1,0,0,0,0-.45.74.74,0,0,0-.35-.42,6.27,6.27,0,0,0-.64-.33c-.21-.1-.43-.2-.65-.32a2.53,2.53,0,0,1-.6-.43,2,2,0,0,1-.46-.61,2,2,0,0,1-.17-.88v-.18a1.23,1.23,0,0,1,0-.2,1.72,1.72,0,0,1,.5-1.09,1.75,1.75,0,0,1,1.07-.39,1.23,1.23,0,0,1,.63.12,2.47,2.47,0,0,1,.41.24.42.42,0,0,0,.26.13.14.14,0,0,0,.15-.12.93.93,0,0,0,0-.23h.15v1.81H85.6a6.07,6.07,0,0,0-.17-.73,2.11,2.11,0,0,0-.29-.56,1.26,1.26,0,0,0-1-.48,1.74,1.74,0,0,0-.45.06,1.1,1.1,0,0,0-.37.2.86.86,0,0,0-.25.34,1.07,1.07,0,0,0-.06.49.94.94,0,0,0,.12.42,1.15,1.15,0,0,0,.28.3,1.67,1.67,0,0,0,.39.23,4.68,4.68,0,0,0,.45.19l.6.27a2.86,2.86,0,0,1,.56.37,2,2,0,0,1,.43.53,2.11,2.11,0,0,1,.22.77,1.85,1.85,0,0,1-.11.75,1.59,1.59,0,0,1-.34.58,1.34,1.34,0,0,1-.53.37,1.67,1.67,0,0,1-.67.13,1.72,1.72,0,0,1-.62-.1l-.47-.2-.2-.11a.65.65,0,0,0-.18,0c-.07,0-.12,0-.14.15a.85.85,0,0,0,0,.25h-.14Z" transform="translate(-48.39 -42.39)"/><path class="cls-3" d="M88.13,133H89l.77,0a1.45,1.45,0,0,0,.61-.18,1,1,0,0,0,.42-.47,2.24,2.24,0,0,0,.15-.93h.15v1.78H86.6V133H87v-5.69H86.6v-.16h4.5v1.48H91a1.73,1.73,0,0,0-.26-.76,1,1,0,0,0-.45-.39,1.56,1.56,0,0,0-.6-.13l-.72,0h-.8V130h.24l.49,0a.64.64,0,0,0,.35-.12.57.57,0,0,0,.22-.31,2.09,2.09,0,0,0,.08-.59h.15v2.27h-.15a2.29,2.29,0,0,0-.07-.54.69.69,0,0,0-.16-.31.5.5,0,0,0-.26-.13,1.9,1.9,0,0,0-.35,0h-.54Z" transform="translate(-48.39 -42.39)"/><path class="cls-3" d="M95.89,129.12h-.18a3.61,3.61,0,0,0-.15-.65,2.4,2.4,0,0,0-.26-.56,1.21,1.21,0,0,0-.4-.38,1,1,0,0,0-.54-.15,1,1,0,0,0-.78.3,1.86,1.86,0,0,0-.44.72,4,4,0,0,0-.19.92c0,.33,0,.63,0,.89a5.22,5.22,0,0,0,0,.56c0,.2,0,.41.08.61a4.15,4.15,0,0,0,.14.61,2.37,2.37,0,0,0,.25.53,1.45,1.45,0,0,0,.37.37,1,1,0,0,0,.51.14,1,1,0,0,0,.69-.25,1,1,0,0,0,.29-.78v-1.49h-.54v-.16H96.8v.16h-.52l0,2.64a.7.7,0,0,0-.21-.3.23.23,0,0,0-.21,0,.72.72,0,0,0-.24.09l-.29.13q-.27.1-.54.18a2.12,2.12,0,0,1-.57.08,2.23,2.23,0,0,1-1-.22,2.17,2.17,0,0,1-.77-.61,2.82,2.82,0,0,1-.5-.94,3.84,3.84,0,0,1-.18-1.21,4.06,4.06,0,0,1,.18-1.2,3.29,3.29,0,0,1,.5-1,2.57,2.57,0,0,1,.77-.7,1.91,1.91,0,0,1,1-.26,1.24,1.24,0,0,1,.4.07l.34.16.31.16a.59.59,0,0,0,.29.07.17.17,0,0,0,.17-.09.87.87,0,0,0,0-.21h.17Z" transform="translate(-48.39 -42.39)"/><path class="cls-3" d="M102.36,127.35h-.43a.25.25,0,0,0-.18.07.34.34,0,0,0-.09.22,2.39,2.39,0,0,0,0,.43v3.07a2.37,2.37,0,0,1-.47,1.67,1.84,1.84,0,0,1-1.42.5,5.25,5.25,0,0,1-.65,0,2.15,2.15,0,0,1-.67-.19,1.57,1.57,0,0,1-.56-.39,1.12,1.12,0,0,1-.29-.66,1,1,0,0,1,0-.26v-4.43H97v-.16h2.28v.16h-.58v3.88a5.94,5.94,0,0,0,0,.76,1.64,1.64,0,0,0,.19.59,1,1,0,0,0,.38.4,1.16,1.16,0,0,0,.62.14,1.53,1.53,0,0,0,.71-.14,1.15,1.15,0,0,0,.47-.43,2,2,0,0,0,.25-.66,3.88,3.88,0,0,0,.09-.87v-2.94a2.36,2.36,0,0,0,0-.44.41.41,0,0,0-.1-.22.26.26,0,0,0-.19-.08,1.39,1.39,0,0,0-.29,0h-.2v-.16h1.74Z" transform="translate(-48.39 -42.39)"/><path class="cls-3" d="M104.15,133h.55v.16h-2V133h.49v-5.69h-.49v-.16h2.6a2.25,2.25,0,0,1,.58.08,1.19,1.19,0,0,1,.51.23,1.24,1.24,0,0,1,.36.45,1.4,1.4,0,0,1,.14.68,1.51,1.51,0,0,1-.09.55,1.11,1.11,0,0,1-.26.4,1.17,1.17,0,0,1-.38.28,2.08,2.08,0,0,1-.46.16v.1a1.19,1.19,0,0,1,.59.32,1.34,1.34,0,0,1,.32.5,1.89,1.89,0,0,1,.14.59c0,.2,0,.4,0,.59l0,.37a1.34,1.34,0,0,0,0,.31.54.54,0,0,0,.1.2.28.28,0,0,0,.2.08l.16,0,.14-.05h0l0,.13a1.18,1.18,0,0,1-.3.1,1.53,1.53,0,0,1-.3,0,1.31,1.31,0,0,1-.62-.12.78.78,0,0,1-.35-.32,1.4,1.4,0,0,1-.16-.5c0-.19,0-.4-.07-.63a1.79,1.79,0,0,0,0-.23,1.94,1.94,0,0,0,0-.24,1.37,1.37,0,0,0-.19-.61.94.94,0,0,0-.34-.32,1.3,1.3,0,0,0-.45-.12,4.61,4.61,0,0,0-.53,0Zm0-5.69V130h.29a1.68,1.68,0,0,0,.5-.07,1.16,1.16,0,0,0,.44-.23,1.11,1.11,0,0,0,.3-.4,1.41,1.41,0,0,0,.12-.61,1.84,1.84,0,0,0-.11-.67,1,1,0,0,0-.29-.41,1.15,1.15,0,0,0-.45-.2,2.23,2.23,0,0,0-.54-.06Z" transform="translate(-48.39 -42.39)"/><path class="cls-3" d="M110.38,127.08a1.72,1.72,0,0,1,.94.27,2.66,2.66,0,0,1,.74.72,3.48,3.48,0,0,1,.48,1,3.69,3.69,0,0,1,.17,1.13,3.65,3.65,0,0,1-.17,1.13,3.25,3.25,0,0,1-.48,1,2.63,2.63,0,0,1-.74.71,1.81,1.81,0,0,1-.94.27,1.76,1.76,0,0,1-.95-.28,2.42,2.42,0,0,1-.74-.72,4,4,0,0,1-.48-1,4.11,4.11,0,0,1-.17-1.15,3.32,3.32,0,0,1,.19-1.11,3.48,3.48,0,0,1,.5-1,2.72,2.72,0,0,1,.74-.7A1.67,1.67,0,0,1,110.38,127.08Zm0,.14a.79.79,0,0,0-.49.15,1.27,1.27,0,0,0-.36.4,2.75,2.75,0,0,0-.23.55c0,.21-.1.42-.13.64s-.06.44-.07.65,0,.4,0,.57,0,.37,0,.58,0,.43.06.65.07.43.12.64a2.94,2.94,0,0,0,.22.57,1.32,1.32,0,0,0,.35.39.82.82,0,0,0,.5.15.85.85,0,0,0,.51-.15,1.34,1.34,0,0,0,.34-.4,2.4,2.4,0,0,0,.21-.57c0-.21.08-.43.1-.65s0-.43,0-.64,0-.41,0-.58,0-.32,0-.53a4.7,4.7,0,0,0,0-.63,5.34,5.34,0,0,0-.13-.65,2.4,2.4,0,0,0-.21-.57,1.36,1.36,0,0,0-.32-.41A.68.68,0,0,0,110.4,127.22Z" transform="translate(-48.39 -42.39)"/><path class="cls-3" d="M113.49,131.06h.13a4.09,4.09,0,0,0,.15.83,1.82,1.82,0,0,0,.31.64,1.36,1.36,0,0,0,.5.42,1.67,1.67,0,0,0,.73.15,1.46,1.46,0,0,0,.48-.08,1.07,1.07,0,0,0,.35-.23.89.89,0,0,0,.19-.36,1,1,0,0,0,0-.45.73.73,0,0,0-.34-.42,6.51,6.51,0,0,0-.65-.33c-.21-.1-.42-.2-.64-.32a2.81,2.81,0,0,1-.61-.43,1.92,1.92,0,0,1-.63-1.49,1.09,1.09,0,0,1,0-.18,1.23,1.23,0,0,1,0-.2,1.71,1.71,0,0,1,.49-1.09,1.77,1.77,0,0,1,1.07-.39,1.18,1.18,0,0,1,.63.12,2.61,2.61,0,0,1,.42.24.4.4,0,0,0,.25.13.14.14,0,0,0,.15-.12,1,1,0,0,0,0-.23h.14v1.81h-.15a4.62,4.62,0,0,0-.17-.73,2.09,2.09,0,0,0-.28-.56,1.21,1.21,0,0,0-.43-.35,1.26,1.26,0,0,0-.6-.13,1.63,1.63,0,0,0-.45.06,1.15,1.15,0,0,0-.38.2,1,1,0,0,0-.24.34,1.06,1.06,0,0,0-.07.49.94.94,0,0,0,.13.42.89.89,0,0,0,.28.3,1.6,1.6,0,0,0,.38.23l.45.19.6.27a2.59,2.59,0,0,1,.56.37,1.86,1.86,0,0,1,.43.53,1.94,1.94,0,0,1,.22.77,1.85,1.85,0,0,1-.1.75,1.74,1.74,0,0,1-.34.58,1.5,1.5,0,0,1-.53.37,1.87,1.87,0,0,1-1.29,0l-.47-.2-.2-.11a.72.72,0,0,0-.19,0c-.07,0-.11,0-.14.15a1.38,1.38,0,0,0,0,.25h-.13Z" transform="translate(-48.39 -42.39)"/></g></svg>