<?xml version="1.0" encoding="UTF-8" standalone="no"?>
<!-- Created with Inkscape (http://www.inkscape.org/) -->

<svg
   version="1.1"
   id="svg2"
   xml:space="preserve"
   width="113.38667"
   height="20.906668"
   viewBox="0 0 113.38667 20.906668"
   sodipodi:docname="sompo-seguros.eps"
   xmlns:inkscape="http://www.inkscape.org/namespaces/inkscape"
   xmlns:sodipodi="http://sodipodi.sourceforge.net/DTD/sodipodi-0.dtd"
   xmlns="http://www.w3.org/2000/svg"
   xmlns:svg="http://www.w3.org/2000/svg"><defs
     id="defs6"><clipPath
       clipPathUnits="userSpaceOnUse"
       id="clipPath18"><path
         d="M 65.207,130.121 C 49.8984,120.723 39.7148,103.836 39.7188,84.5664 39.7266,55.0469 63.6602,31.1406 93.1641,31.1523 c 12.4179,0 23.8589,4.2461 32.9259,11.3477 -2.625,-7.082 -6.453,-13.5859 -11.207,-19.2578 -6.801,-2.4219 -14.09,-3.7227 -21.7111,-3.7305 -35.9453,0 -65.0703,29.1289 -65.0781,65.0469 -0.0079,15.9374 5.7226,30.5394 15.2382,41.8474 5.1914,1.836 10.668,3.043 16.3438,3.512 C 26.2461,127.184 -0.0078125,99.168 0,65.0391 0.0078125,29.1211 29.1289,0 65.0547,0 101.016,0.0078125 130.121,29.1484 130.117,65.0742 130.109,100.996 101.004,130.121 65.0664,130.133 Z"
         id="path16" /></clipPath><clipPath
       clipPathUnits="userSpaceOnUse"
       id="clipPath24"><path
         d="M -0.0078125,-0.03125 -0.0390625,130.133 130.121,130.16 130.152,0 Z"
         id="path22" /></clipPath><linearGradient
       x1="0"
       y1="0"
       x2="1"
       y2="0"
       gradientUnits="userSpaceOnUse"
       gradientTransform="matrix(-0.0293066,130.164,-130.164,-0.0293066,65.073,-0.0190048)"
       spreadMethod="pad"
       id="linearGradient30"><stop
         style="stop-opacity:1;stop-color:#6a121d"
         offset="0"
         id="stop26" /><stop
         style="stop-opacity:1;stop-color:#e62045"
         offset="1"
         id="stop28" /></linearGradient><clipPath
       clipPathUnits="userSpaceOnUse"
       id="clipPath42"><path
         d="m 64.7656,130.133 c -1.7109,-0.012 -3.4179,-0.086 -5.0898,-0.215 C 54,129.449 48.5234,128.242 43.332,126.406 33.8164,115.098 28.0859,100.496 28.0938,84.5586 28.1016,48.6406 57.2266,19.5117 93.1719,19.5117 c 7.6211,0.0078 14.9101,1.3086 21.7111,3.7305 4.754,5.6719 8.574,12.1758 11.203,19.2578 C 117.023,35.3984 105.582,31.1523 93.1641,31.1523 63.6602,31.1406 39.7266,55.0469 39.7188,84.5664 39.7148,103.836 49.8984,120.723 65.207,130.121 l -0.1289,0.012 z"
         id="path40" /></clipPath><clipPath
       clipPathUnits="userSpaceOnUse"
       id="clipPath48"><path
         d="m 28.0859,19.4883 -0.0234,110.6447 98.0195,0.023 0.023,-110.6443 z"
         id="path46" /></clipPath><linearGradient
       x1="0"
       y1="0"
       x2="1"
       y2="0"
       gradientUnits="userSpaceOnUse"
       gradientTransform="matrix(-0.0293047,130.128,130.128,0.0293047,65.0662,0.00498962)"
       spreadMethod="pad"
       id="linearGradient54"><stop
         style="stop-opacity:1;stop-color:#510e16"
         offset="0"
         id="stop50" /><stop
         style="stop-opacity:1;stop-color:#a81834"
         offset="1"
         id="stop52" /></linearGradient><clipPath
       clipPathUnits="userSpaceOnUse"
       id="clipPath64"><path
         d="M 91.7148,156.805 C 55.7773,156.797 26.6406,127.66 26.6484,91.7383 26.6523,55.8008 55.8086,26.668 91.7383,26.6797 c 35.9337,0 65.0547,29.1484 65.0387,65.082 -0.004,35.9293 -29.132,65.0393 -65.0504,65.0433 z M 34.3672,91.7383 C 34.3555,123.418 60.0313,149.105 91.7148,149.117 123.391,149.125 149.07,123.438 149.078,91.7617 149.082,60.0664 123.418,34.3828 91.7383,34.375 h -0.0117 -0.0078 c 0,0 0,0 -0.004,0 -31.6796,0 -57.3437,25.6719 -57.3476,57.3633"
         id="path62" /></clipPath><clipPath
       clipPathUnits="userSpaceOnUse"
       id="clipPath70"><path
         d="M 156.824,26.668 156.793,156.836 26.6133,156.805 26.6406,26.6406 Z"
         id="path68" /></clipPath><linearGradient
       x1="0"
       y1="0"
       x2="1"
       y2="0"
       gradientUnits="userSpaceOnUse"
       gradientTransform="matrix(-0.0293138,130.168,130.168,0.0293138,91.7303,26.651)"
       spreadMethod="pad"
       id="linearGradient82"><stop
         style="stop-opacity:1;stop-color:#d3d2d2"
         offset="0"
         id="stop72" /><stop
         style="stop-opacity:1;stop-color:#b2b1b1"
         offset="0.087912"
         id="stop74" /><stop
         style="stop-opacity:1;stop-color:#444141"
         offset="0.4"
         id="stop76" /><stop
         style="stop-opacity:1;stop-color:#e9e9e9"
         offset="0.5"
         id="stop78" /><stop
         style="stop-opacity:1;stop-color:#c8c7c7"
         offset="1"
         id="stop80" /></linearGradient><clipPath
       clipPathUnits="userSpaceOnUse"
       id="clipPath92"><path
         d="M 91.7148,150.863 C 59.0391,150.855 32.5898,124.391 32.5938,91.7383 32.6055,59.0898 59.0586,32.6172 91.7344,32.625 h 0.0039 c 32.6677,0 59.1167,26.4961 59.1167,59.1367 -0.007,32.6403 -26.472,59.0973 -59.1284,59.1013 z M 38.293,91.7383 C 38.2813,121.258 62.1992,145.176 91.7188,145.184 121.207,145.195 145.156,121.277 145.16,91.7617 145.172,62.2344 121.238,38.3203 91.7383,38.3203 h -0.0117 -0.0078 c -29.504,0 -53.4258,23.8945 -53.4258,53.418"
         id="path90" /></clipPath><clipPath
       clipPathUnits="userSpaceOnUse"
       id="clipPath98"><path
         d="M 32.5586,150.863 150.855,150.887 150.887,32.6172 32.5898,32.5859 Z"
         id="path96" /></clipPath><linearGradient
       x1="0"
       y1="0"
       x2="1"
       y2="0"
       gradientUnits="userSpaceOnUse"
       gradientTransform="matrix(118.297,0.0266351,-0.0266351,118.297,32.5736,91.7246)"
       spreadMethod="pad"
       id="linearGradient110"><stop
         style="stop-opacity:1;stop-color:#5a5758"
         offset="0"
         id="stop100" /><stop
         style="stop-opacity:1;stop-color:#a7a5a6"
         offset="0.274725"
         id="stop102" /><stop
         style="stop-opacity:1;stop-color:#e9e9e9"
         offset="0.5"
         id="stop104" /><stop
         style="stop-opacity:1;stop-color:#a7a5a6"
         offset="0.862637"
         id="stop106" /><stop
         style="stop-opacity:1;stop-color:#444141"
         offset="1"
         id="stop108" /></linearGradient></defs><sodipodi:namedview
     id="namedview4"
     pagecolor="#ffffff"
     bordercolor="#666666"
     borderopacity="1.0"
     inkscape:pageshadow="2"
     inkscape:pageopacity="0.0"
     inkscape:pagecheckerboard="0" /><g
     id="g8"
     inkscape:groupmode="layer"
     inkscape:label="ink_ext_XXXXXX"
     transform="matrix(1.3333333,0,0,-1.3333333,0,20.906667)"><g
       id="g10"
       transform="scale(0.1)"><g
         id="g12"><g
           id="g14"
           clip-path="url(#clipPath18)"><g
             id="g20"
             clip-path="url(#clipPath24)"><path
               d="m 54,0 v 1 h -5 v 1 h -3 v 1 h -3 v 1 h -3 v 1 h -2 v 1 h -2 v 1 h -2 v 1 h -2 v 1 h -2 v 1 h -2 v 1 h -1 v 1 h -1 v 1 h -1 v 1 h -2 v 1 h -1 v 1 h -1 v 1 h -1 v 1 h -1 v 1 h -1 v 1 h -1 v 1 h -1 v 1 h -1 v 1 h -1 v 2 h -1 v 1 h -1 v 1 h -1 v 1 h -1 v 2 H 9 v 2 H 8 v 2 H 7 v 2 H 6 v 2 H 5 v 2 H 4 v 3 H 3 v 3 H 2 v 3 H 1 v 5 H 0 v 23 h 1 v 4 h 1 v 3 h 1 v 4 h 1 v 2 h 1 v 2 h 1 v 2 h 1 v 2 h 1 v 2 h 1 v 2 h 1 v 2 h 1 v 1 h 1 v 1 h 1 v 1 h 1 v 2 h 1 v 1 h 1 v 1 h 1 v 1 h 1 v 1 h 1 v 1 h 1 v 1 h 1 v 1 h 1 v 1 h 1 v 1 h 1 v 1 h 1 v 1 h 2 v 1 h 2 v 1 h 1 v 1 h 2 v 1 h 1 v 1 h 2 v 1 h 2 v 1 h 3 v 1 h 2 v 1 h 3 v 1 h 3 v 1 h 5 v 1 h 7 v -1 h -5 v -1 h -5 v -1 h -4 v -1 h -3 v -2 h -1 v -1 h -1 v -2 h -1 v -1 h -1 v -2 h -1 v -1 h -1 v -2 h -1 v -2 h -1 v -2 h -1 v -2 h -1 v -3 h -1 v -3 H 31 V 99 H 30 V 95 H 29 V 75 h 1 v -5 h 1 v -3 h 1 v -3 h 1 v -4 h 1 v -2 h 1 v -2 h 1 v -1 h 1 v -2 h 1 v -2 h 1 v -2 h 1 v -1 h 1 v -1 h 1 v -2 h 1 v -1 h 1 v -1 h 1 v -1 h 1 v -2 h 1 v -1 h 1 v -1 h 2 v -1 h 1 v -1 h 1 v -1 h 1 v -1 h 1 v -1 h 2 v -1 h 1 v -1 h 1 v -1 h 2 v -1 h 2 v -1 h 2 v -1 h 2 v -1 h 2 v -1 h 2 v -1 h 4 v -1 h 3 v -1 h 3 v -1 h 7 v -1 h 12 v 1 h 7 v 1 h 4 v 1 h 4 v 1 h 1 v 2 h 1 v 1 h 1 v 1 h 1 v 1 h 1 v 2 h 1 v 2 h 1 v 2 h 1 v 2 h 1 v 1 h 1 v 2 h -1 v -1 h -2 v -1 h -1 v -1 h -2 v -1 h -3 v -1 h -2 v -1 h -2 v -1 h -4 v -1 h -4 V 31 H 84 v 1 h -5 v 1 h -3 v 1 h -3 v 1 h -2 v 1 h -2 v 1 h -2 v 1 h -2 v 1 h -2 v 1 h -1 v 1 h -1 v 1 h -2 v 1 h -1 v 1 h -1 v 1 h -1 v 1 h -1 v 1 h -1 v 1 h -1 v 1 h -1 v 1 h -1 v 2 h -1 v 1 h -1 v 1 h -1 v 2 h -1 v 2 h -1 v 1 h -1 v 2 h -1 v 2 h -1 v 3 h -1 v 3 h -1 v 4 h -1 v 6 h -1 v 11 h 1 v 6 h 1 v 4 h 1 v 3 h 1 v 2 h 1 v 2 h 1 v 3 h 1 v 2 h 1 v 1 h 1 v 2 h 1 v 1 h 1 v 1 h 1 v 2 h 1 v 1 h 1 v 1 h 1 v 1 h 1 v 1 h 1 v 1 h 1 v 1 h 1 v 1 h 1 v 1 h 1 v 1 h 1 v 1 h 2 v 1 h 2 v 1 h 5 v -1 h 7 v -1 h 4 v -1 h 3 v -1 h 4 v -1 h 3 v -1 h 2 v -1 h 2 v -1 h 1 v -1 h 2 v -1 h 2 v -1 h 2 v -1 h 1 v -1 h 1 v -1 h 2 v -1 h 1 v -1 h 1 v -1 h 1 v -1 h 1 v -1 h 2 v -2 h 1 v -1 h 1 v -1 h 1 v -1 h 1 v -1 h 1 v -2 h 1 v -1 h 1 v -1 h 1 v -2 h 1 v -2 h 1 v -2 h 1 v -1 h 1 v -2 h 1 v -2 h 1 v -3 h 1 v -4 h 1 v -3 h 1 v -4 h 1 v -7 h 1 V 60 h -1 v -7 h -1 v -4 h -1 v -3 h -1 v -4 h -1 v -3 h -1 v -2 h -1 v -2 h -1 v -2 h -1 v -2 h -1 v -1 h -1 v -2 h -1 v -1 h -1 v -1 h -1 v -2 h -1 v -1 h -1 v -1 h -1 v -1 h -1 v -1 h -1 v -1 h -1 v -1 h -1 v -1 h -1 v -1 h -1 v -1 h -1 v -1 h -2 v -1 h -1 v -1 h -1 v -1 h -1 v -1 h -2 V 9 H 98 V 8 H 96 V 7 H 94 V 6 H 93 V 5 H 91 V 4 H 87 V 3 H 84 V 2 H 81 V 1 H 76 V 0"
               style="fill:url(#linearGradient30);fill-opacity:1;fill-rule:nonzero;stroke:none"
               id="path32" /></g></g></g><path
         d="m 59.668,129.918 c 1.7656,0.145 3.5508,0.219 5.3515,0.219 l 0.0469,-0.004 h -0.0391 c -1.8046,0 -3.5937,-0.074 -5.3593,-0.215"
         style="fill:#aeb3b5;fill-opacity:1;fill-rule:nonzero;stroke:none"
         id="path34" /><g
         id="g36"><g
           id="g38"
           clip-path="url(#clipPath42)"><g
             id="g44"
             clip-path="url(#clipPath48)"><path
               d="m 86,19 v 1 h -7 v 1 h -3 v 1 h -3 v 1 h -4 v 1 h -2 v 1 h -2 v 1 h -2 v 1 h -2 v 1 h -2 v 1 h -2 v 1 h -1 v 1 h -1 v 1 h -2 v 1 h -1 v 1 h -1 v 1 h -1 v 1 h -1 v 1 h -2 v 1 h -1 v 1 h -1 v 2 h -1 v 1 h -1 v 1 h -1 v 1 h -1 v 2 h -1 v 1 h -1 v 1 h -1 v 2 h -1 v 2 h -1 v 2 h -1 v 1 h -1 v 2 h -1 v 2 h -1 v 4 h -1 v 3 h -1 v 3 h -1 v 5 h -1 v 22 h 1 v 4 h 1 v 4 h 1 v 3 h 1 v 3 h 1 v 2 h 1 v 2 h 1 v 2 h 1 v 2 h 1 v 1 h 1 v 2 h 1 v 1 h 1 v 2 h 1 v 1 h 1 v 2 h 3 v 1 h 4 v 1 h 5 v 1 h 7 v 1 h 5 v -2 h -2 v -1 h -2 v -1 h -1 v -1 h -1 v -1 h -1 v -1 h -1 v -1 h -1 v -1 h -1 v -1 h -1 v -1 h -1 v -1 h -1 v -1 h -1 v -2 h -1 v -1 h -1 v -1 h -1 v -2 h -1 v -1 h -1 v -2 h -1 v -3 h -1 v -2 h -1 v -2 h -1 v -3 h -1 v -4 h -1 v -6 h -1 v -9 h 1 v -6 h 1 v -4 h 1 v -3 h 1 v -3 h 1 v -2 h 1 v -2 h 1 v -1 h 1 v -2 h 1 v -2 h 1 v -1 h 1 v -1 h 1 v -2 h 1 v -1 h 1 v -1 h 1 v -1 h 1 v -1 h 1 v -1 h 1 v -1 h 1 v -1 h 1 v -1 h 2 v -1 h 1 v -1 h 1 v -1 h 2 v -1 h 2 v -1 h 2 v -1 h 2 v -1 h 2 v -1 h 3 v -1 h 3 v -1 h 5 v -1 h 17 v 1 h 4 v 1 h 4 v 1 h 2 v 1 h 2 v 1 h 3 v 1 h 2 v 1 h 1 v 1 h 2 v 1 h 2 v 1 h 1 v 1 h 2 v -1 h -1 v -3 h -1 v -2 h -1 v -2 h -1 v -2 h -1 v -2 h -1 v -1 h -1 v -2 h -1 v -1 h -1 v -1 h -1 v -2 h -1 v -1 h -1 v -1 h -4 v -1 h -4 v -1 h -7 v -1"
               style="fill:url(#linearGradient54);fill-opacity:1;fill-rule:nonzero;stroke:none"
               id="path56" /></g></g></g><g
         id="g58"><g
           id="g60"
           clip-path="url(#clipPath64)"><g
             id="g66"
             clip-path="url(#clipPath70)"><path
               d="m 86,26 v 1 h -8 v 1 h -3 v 1 h -3 v 1 h -4 v 1 h -2 v 1 h -2 v 1 h -2 v 1 h -2 v 1 h -2 v 1 h -2 v 1 h -1 v 1 h -2 v 1 h -1 v 1 h -1 v 1 h -1 v 1 h -1 v 1 h -2 v 1 h -1 v 1 h -1 v 1 h -1 v 1 h -1 v 2 h -1 v 1 h -1 v 1 h -1 v 1 h -1 v 1 h -1 v 2 h -1 v 1 h -1 v 2 h -1 v 2 h -1 v 2 h -1 v 2 h -1 v 1 h -1 v 3 h -1 v 4 h -1 v 3 h -1 v 3 h -1 v 7 h -1 v 13 h 1 v 7 h 1 v 4 h 1 v 3 h 1 v 3 h 1 v 3 h 1 v 2 h 1 v 2 h 1 v 2 h 1 v 1 h 1 v 2 h 1 v 2 h 1 v 1 h 1 v 1 h 1 v 2 h 1 v 1 h 1 v 1 h 1 v 1 h 1 v 1 h 1 v 1 h 1 v 1 h 1 v 1 h 1 v 1 h 1 v 1 h 1 v 1 h 2 v 1 h 1 v 1 h 1 v 1 h 1 v 1 h 2 v 1 h 2 v 1 h 2 v 1 h 2 v 1 h 2 v 1 h 2 v 1 h 3 v 1 h 3 v 1 h 4 v 1 h 5 v 1 h 19 v -1 h 6 v -1 h 3 v -1 h 3 v -1 h 4 v -1 h 2 v -1 h 2 v -1 h 1 v -1 h 2 v -1 h 2 v -1 h 2 v -1 h 1 v -1 h 2 v -1 h 1 v -1 h 1 v -1 h 1 v -1 h 1 v -1 h 2 v -1 h 1 v -1 h 1 v -1 h 1 v -2 h 1 v -1 h 1 v -1 h 1 v -1 h 1 v -1 h 1 v -2 h 1 v -1 h 1 v -2 h 1 v -2 h 1 v -2 h 1 v -1 h 1 v -2 h 1 v -3 h 1 v -3 h 1 v -3 h 1 v -3 h 1 v -6 h 1 V 82 h -1 v -5 h -1 v -4 h -1 v -3 h -1 v -3 h -1 v -2 h -1 v -2 h -1 v -2 h -1 v -2 h -1 v -2 h -1 v -2 h -1 v -1 h -1 v -1 h -1 v -1 h -1 v -2 h -1 v -1 h -1 v -1 h -1 v -1 h -1 v -1 h -1 v -1 h -1 v -1 h -1 v -1 h -1 v -1 h -1 v -1 h -2 v -1 h -1 v -1 h -1 v -1 h -1 v -1 h -2 v -1 h -2 v -1 h -2 v -1 h -1 v -1 h -2 v -1 h -2 v -1 h -3 v -1 h -3 v -1 h -3 v -1 h -4 v -1 h -7 v -1 z m -1,10 v -1 h 14 v 1 h 5 v 1 h 3 v 1 h 4 v 1 h 3 v 1 h 2 v 1 h 1 v 1 h 2 v 1 h 2 v 1 h 2 v 1 h 1 v 1 h 2 v 1 h 1 v 1 h 1 v 1 h 1 v 1 h 1 v 1 h 2 v 2 h 1 v 1 h 1 v 1 h 1 v 1 h 1 v 1 h 1 v 2 h 1 v 1 h 1 v 1 h 1 v 2 h 1 v 2 h 1 v 2 h 1 v 2 h 1 v 2 h 1 v 4 h 1 v 3 h 1 v 3 h 1 v 8 h 1 v 6 h -1 v 7 h -1 v 4 h -1 v 3 h -1 v 3 h -1 v 3 h -1 v 1 h -1 v 2 h -1 v 2 h -1 v 2 h -1 v 2 h -1 v 1 h -1 v 1 h -1 v 1 h -1 v 2 h -1 v 1 h -1 v 1 h -1 v 1 h -1 v 1 h -1 v 1 h -1 v 1 h -2 v 1 h -1 v 1 h -1 v 1 h -1 v 1 h -2 v 1 h -2 v 1 h -2 v 1 h -1 v 1 h -2 v 1 h -3 v 1 h -3 v 1 h -3 v 1 h -4 v 1 h -7 v 1 h -7 v -1 h -7 v -1 h -3 v -1 h -4 v -1 h -3 v -1 h -2 v -1 h -2 v -1 h -2 v -1 h -2 v -1 h -2 v -1 h -1 v -1 h -1 v -1 h -2 v -1 h -1 v -1 h -1 v -1 h -1 v -1 h -2 v -1 h -1 v -2 h -1 v -1 h -1 v -1 h -1 v -1 h -1 v -1 h -1 v -2 h -1 v -1 h -1 v -2 h -1 v -2 h -1 v -2 h -1 v -1 h -1 v -2 h -1 v -3 h -1 v -3 h -1 v -4 H 36 V 99 H 35 V 85 h 1 v -6 h 1 v -3 h 1 v -3 h 1 v -3 h 1 v -2 h 1 v -2 h 1 v -2 h 1 v -2 h 1 v -2 h 1 v -1 h 1 v -1 h 1 v -1 h 1 v -1 h 1 v -2 h 1 v -1 h 1 v -1 h 1 v -1 h 1 v -1 h 1 v -1 h 2 v -1 h 1 v -1 h 1 v -1 h 1 v -1 h 1 v -1 h 2 v -1 h 2 v -1 h 2 v -1 h 2 v -1 h 2 v -1 h 3 v -1 h 3 v -1 h 3 v -1"
               style="fill:url(#linearGradient82);fill-opacity:1;fill-rule:nonzero;stroke:none"
               id="path84" /></g></g></g><g
         id="g86"><g
           id="g88"
           clip-path="url(#clipPath92)"><g
             id="g94"
             clip-path="url(#clipPath98)"><path
               d="m 85,32 v 1 h -6 v 1 h -3 v 1 h -4 v 1 h -3 v 1 h -2 v 1 h -2 v 1 h -2 v 1 h -2 v 1 h -2 v 1 h -1 v 1 h -1 v 1 h -2 v 1 h -1 v 1 h -1 v 1 h -1 v 1 h -1 v 1 h -2 v 2 h -1 v 1 h -1 v 1 h -1 v 1 h -1 v 1 h -1 v 2 h -1 v 1 h -1 v 1 h -1 v 2 h -1 v 2 h -1 v 2 h -1 v 2 h -1 v 2 h -1 v 3 h -1 v 3 h -1 v 4 h -1 v 6 h -1 v 13 h 1 v 7 h 1 v 3 h 1 v 3 h 1 v 3 h 1 v 3 h 1 v 1 h 1 v 2 h 1 v 2 h 1 v 2 h 1 v 2 h 1 v 1 h 1 v 1 h 1 v 1 h 1 v 2 h 1 v 1 h 1 v 1 h 1 v 1 h 1 v 1 h 1 v 1 h 1 v 1 h 2 v 1 h 1 v 1 h 1 v 1 h 1 v 1 h 2 v 1 h 1 v 1 h 2 v 1 h 2 v 1 h 2 v 1 h 2 v 1 h 3 v 1 h 3 v 1 h 3 v 1 h 5 v 1 h 20 v -1 h 4 v -1 h 3 v -1 h 4 v -1 h 3 v -1 h 1 v -1 h 2 v -1 h 2 v -1 h 2 v -1 h 2 v -1 h 1 v -1 h 1 v -1 h 2 v -1 h 1 v -1 h 1 v -1 h 1 v -1 h 1 v -1 h 1 v -1 h 1 v -1 h 1 v -1 h 1 v -1 h 1 v -1 h 1 v -2 h 1 v -1 h 1 v -1 h 1 v -2 h 1 v -2 h 1 v -2 h 1 v -2 h 1 v -1 h 1 v -3 h 1 v -4 h 1 v -3 h 1 v -4 h 1 V 82 h -1 v -5 h -1 v -3 h -1 v -3 h -1 v -3 h -1 v -2 h -1 v -2 h -1 v -2 h -1 v -2 h -1 v -1 h -1 v -2 h -1 v -1 h -1 v -1 h -1 v -1 h -1 v -2 h -1 v -1 h -1 v -1 h -1 v -1 h -1 v -1 h -1 v -1 h -2 v -1 h -1 v -1 h -1 v -1 h -1 v -1 h -1 v -1 h -2 v -1 h -2 v -1 h -2 v -1 h -2 v -1 h -1 v -1 h -3 v -1 h -3 v -1 h -3 v -1 h -3 v -1 h -7 v -1 z m -1,8 v -1 h 15 v 1 h 5 v 1 h 3 v 1 h 3 v 1 h 3 v 1 h 2 v 1 h 2 v 1 h 1 v 1 h 2 v 1 h 2 v 1 h 1 v 1 h 1 v 1 h 1 v 1 h 2 v 1 h 1 v 1 h 1 v 1 h 1 v 1 h 1 v 1 h 1 v 2 h 1 v 1 h 1 v 1 h 1 v 1 h 1 v 2 h 1 v 2 h 1 v 2 h 1 v 2 h 1 v 2 h 1 v 3 h 1 v 3 h 1 v 3 h 1 v 7 h 1 v 7 h -1 v 7 h -1 v 3 h -1 v 4 h -1 v 3 h -1 v 2 h -1 v 2 h -1 v 2 h -1 v 1 h -1 v 2 h -1 v 1 h -1 v 2 h -1 v 1 h -1 v 1 h -1 v 1 h -1 v 1 h -1 v 1 h -1 v 1 h -1 v 1 h -1 v 1 h -1 v 1 h -1 v 1 h -2 v 1 h -1 v 1 h -2 v 1 h -1 v 1 h -2 v 1 h -2 v 1 h -2 v 1 h -3 v 1 h -3 v 1 h -4 v 1 h -7 v 1 h -7 v -1 h -7 v -1 h -3 v -1 h -3 v -1 h -4 v -1 h -1 v -1 h -2 v -1 h -2 v -1 h -2 v -1 h -2 v -1 h -1 v -1 h -1 v -1 h -1 v -1 h -2 v -1 h -1 v -1 h -1 v -1 h -1 v -1 h -1 v -1 h -1 v -2 h -1 v -1 h -1 v -1 h -1 v -1 h -1 v -2 h -1 v -1 h -1 v -2 h -1 v -2 h -1 v -2 h -1 v -3 h -1 v -3 h -1 v -3 H 40 V 99 H 39 V 84 h 1 v -5 h 1 v -3 h 1 v -3 h 1 v -3 h 1 v -1 h 1 v -2 h 1 v -2 h 1 v -2 h 1 v -1 h 1 v -2 h 1 v -1 h 1 v -1 h 1 v -1 h 1 v -1 h 1 v -2 h 2 v -1 h 1 v -1 h 1 v -1 h 1 v -1 h 1 v -1 h 2 v -1 h 1 v -1 h 2 v -1 h 2 v -1 h 2 v -1 h 2 v -1 h 2 v -1 h 3 v -1 h 4 v -1"
               style="fill:url(#linearGradient110);fill-opacity:1;fill-rule:nonzero;stroke:none"
               id="path112" /></g></g></g><path
         d="m 383.379,106.523 -21.727,-55.5269 -21.734,55.5239 -15.477,-0.008 0.012,-66.0745 9.805,0.0117 -0.016,57.7696 22.653,-57.7696 h 9.546 l 22.629,57.7813 0.008,-57.7735 h 9.781 l -0.019,66.07"
         style="fill:#fff;fill-opacity:1;fill-rule:nonzero;stroke:none"
         id="path114" /><path
         d="m 189.582,50.6055 c 5.918,-2.7071 13.074,-4.6289 20.488,-4.6211 8.223,0 16.551,3.2344 16.551,11.1523 0,6.6602 -6.648,10.2617 -14.957,13.3789 l -5.984,2.3203 c -8.024,3.168 -15.86,7.9102 -15.86,16.8204 -0.004,12.5897 14.203,17.8047 27.016,17.8087 6.809,0 12.394,-0.781 18.578,-2.535 l -0.75,-7.2073 c -5.289,1.875 -11.273,3.1523 -17.613,3.1523 -8.172,-0.008 -15.781,-3.2578 -15.781,-10.1289 0,-5.4336 5.515,-8.3945 13,-11.2852 l 5.82,-2.2695 c 9.734,-3.6562 18.262,-8.6992 18.265,-18.5781 0.004,-12.7735 -12.332,-19.25 -27.632,-19.2578 -6.438,0 -15.918,1.5429 -21.766,3.5429"
         style="fill:#fff;fill-opacity:1;fill-rule:nonzero;stroke:none"
         id="path116" /><path
         d="m 424.055,73.6406 h 10.531 c 9.699,0.0078 15.625,5.0938 15.625,13.8008 0,8.6914 -6.594,12.3828 -15.629,12.3828 l -10.539,-0.0039 z m -10.758,-33.1836 -0.016,66.074 20.598,0.008 c 14.469,0 27.66,-4.254 27.672,-19.0038 0,-15.3516 -13.067,-20.6993 -28.434,-20.7032 h -9.062 l 0.004,-26.3632"
         style="fill:#fff;fill-opacity:1;fill-rule:nonzero;stroke:none"
         id="path118" /><path
         d="m 502.137,46.4922 c 15.828,0.0117 22.117,14.6875 22.105,26.9883 0,12.3008 -6.168,26.9885 -22.117,26.9845 -15.574,-0.008 -22.09,-14.9689 -22.09,-26.9923 0.012,-12.0469 6.309,-26.9805 22.102,-26.9805 m -33.535,26.9726 c 0,18.4844 11.289,34.1212 33.523,34.1292 22.703,0.004 33.574,-14.8752 33.586,-34.1096 0,-19.2461 -11.516,-34.1406 -33.574,-34.1485 -22.024,0 -33.528,15.6329 -33.535,34.1289"
         style="fill:#fff;fill-opacity:1;fill-rule:nonzero;stroke:none"
         id="path120" /><path
         d="m 279.531,46.4453 c 15.832,0.0078 22.106,14.6875 22.106,26.9883 -0.004,12.293 -6.168,26.9844 -22.114,26.9804 -15.589,-0.004 -22.085,-14.9687 -22.082,-26.9921 0,-12.0469 6.278,-26.9766 22.09,-26.9766 M 245.992,73.418 c -0.004,18.4804 11.27,34.121 33.531,34.121 22.711,0.004 33.571,-14.8671 33.575,-34.1015 0.004,-19.25 -11.508,-34.1406 -33.567,-34.1523 -22.011,0 -33.539,15.6367 -33.539,34.1328"
         style="fill:#fff;fill-opacity:1;fill-rule:nonzero;stroke:none"
         id="path122" /><path
         d="m 588.211,80.125 c -3.398,1.3398 -5.266,1.9414 -8.742,1.9336 -3.723,0 -8.114,-1.3281 -8.114,-6.1992 0,-8.9297 20,-6.8516 20,-22.168 0,-9.9219 -7.667,-13.8672 -16.992,-13.8672 -3.285,0 -6.476,0.9453 -9.535,1.9336 l 0.664,6.1992 c 2.289,-0.9453 6.262,-2.2656 9.668,-2.2656 3.781,0 9.113,2.1211 9.113,7.5899 0,10.3984 -19.988,7.5195 -19.988,21.9882 0,8.2657 6.531,12.6485 14.93,12.6563 3.066,0 6.719,-0.5391 9.922,-1.6719"
         style="fill:#fff;fill-opacity:1;fill-rule:nonzero;stroke:none"
         id="path124" /><path
         d="m 600.719,87.1289 26.023,0.0039 V 81.2695 L 607.398,81.2656 V 67.6758 l 17.637,0.0039 0.012,-5.8633 H 607.398 V 46.5039 l 19.356,0.0078 0.012,-5.8672 H 600.73"
         style="fill:#fff;fill-opacity:1;fill-rule:nonzero;stroke:none"
         id="path126" /><path
         d="m 672.73,78.8867 c -3.261,2.1328 -6.796,3.2031 -12.792,3.1992 -10.711,0 -17.833,-7.8086 -17.833,-18.1992 0.012,-10.9179 7.852,-18.1758 17.512,-18.1758 4.586,0 5.801,0.4688 7.481,0.8008 l -0.012,14.1211 h -9.785 v 5.4492 h 16.445 l 0.012,-24.1679 c -2.551,-0.8594 -6.953,-2.0703 -14.199,-2.0703 -14.731,-0.0118 -24.524,9.4531 -24.532,24.246 0,14.3243 10.411,23.8438 24.578,23.8477 6.79,0.0078 9.805,-0.9844 13.653,-2.3164"
         style="fill:#fff;fill-opacity:1;fill-rule:nonzero;stroke:none"
         id="path128" /><path
         d="m 721.715,59.9219 c 0,-13.0664 -6.582,-20.0703 -18.074,-20.0703 -11.438,0 -18.047,6.9922 -18.047,20.0586 l -0.012,27.2382 h 6.652 l 0.008,-26.3867 c 0,-8.9179 2.805,-15.039 11.399,-15.039 8.601,0 11.394,6.1211 11.394,15.0468 v 26.3828 h 6.668"
         style="fill:#fff;fill-opacity:1;fill-rule:nonzero;stroke:none"
         id="path130" /><path
         d="m 739.879,67.1836 h 5.664 c 6.328,0.0039 10.059,2.7969 10.059,7.2656 0,4.1836 -3.204,6.8438 -9.325,6.8438 l -6.398,-0.0039 z m -6.66,19.9727 h 11.398 c 9.199,0.0078 18.035,-1.4571 18.047,-12.5782 0,-5.6718 -4.199,-9.6523 -9.59,-10.5937 v -0.1289 c 2.071,-0.8008 3.067,-1.8047 4.531,-4.668 l 8.797,-18.5156 h -7.605 l -7.129,16.125 c -2.051,4.5195 -4.25,4.5117 -7.797,4.5117 h -3.992 l 0.012,-20.6367 h -6.661"
         style="fill:#fff;fill-opacity:1;fill-rule:nonzero;stroke:none"
         id="path132" /><path
         d="m 794.305,45.7422 c 10.722,0 15.312,8.9258 15.3,18.1836 0,9.457 -5.058,18.25 -15.3,18.1836 -10.266,0.0586 -15.332,-8.7344 -15.325,-18.1953 0,-9.2578 4.61,-18.1719 15.325,-18.1719 m 0,42.2266 c 14.129,0 22.371,-10.2657 22.371,-24.043 0.012,-14.1211 -8.184,-24.0547 -22.371,-24.0547 -14.2,-0.0078 -22.364,9.9219 -22.375,24.043 0,13.7812 8.254,24.0507 22.375,24.0547"
         style="fill:#fff;fill-opacity:1;fill-rule:nonzero;stroke:none"
         id="path134" /><path
         d="m 847.262,80.1836 c -3.399,1.3437 -5.254,1.9414 -8.731,1.9336 -3.718,0 -8.133,-1.3281 -8.133,-6.1992 0,-8.9297 19.989,-6.8516 20,-22.168 0,-9.9336 -7.675,-13.8672 -16.972,-13.8672 -3.262,0 -6.457,0.9453 -9.531,1.9336 l 0.652,6.1992 c 2.285,-0.9453 6.262,-2.2656 9.648,-2.2656 3.821,0.0117 9.141,2.1211 9.141,7.5898 0,10.3985 -19.988,7.5196 -19.988,21.9883 0,8.2657 6.543,12.6485 14.91,12.6563 3.066,0 6.73,-0.5391 9.922,-1.6719"
         style="fill:#fff;fill-opacity:1;fill-rule:nonzero;stroke:none"
         id="path136" /></g></g></svg>
